<svg width="434" height="377" viewBox="0 0 434 377" fill="none" xmlns="http://www.w3.org/2000/svg">
<path d="M145 231.257C72.0386 227.275 42 174.974 42 136.999C42 110.659 45.9372 96.6167 48.8888 90.9344C49.7545 89.2679 50.4583 87.4665 50.4073 85.5893C49.8534 65.2157 50.1761 13.9214 55.5 10.4989C60.678 7.17021 92.0465 38.3536 107.153 50.0553C109.183 51.627 111.901 51.7323 114.214 50.62C120.968 47.3721 130.297 44 145 44C159.659 44 168.283 47.3522 174.8 50.5912C177.098 51.7334 179.816 51.6266 181.852 50.0635C197.084 38.3681 229.321 7.16944 234.5 10.4989C239.824 13.9214 240.147 65.2157 239.593 85.5893C239.542 87.4665 240.246 89.2679 241.111 90.9344C244.063 96.6167 248 110.659 248 136.999C248 174.974 217.961 227.275 145 231.257Z" fill="black"/>
<path d="M116.5 107.5C116.5 114.956 110.456 121 103 121C95.5442 121 86 112.456 86 105C86 97.5442 95.5442 94 103 94C110.456 94 116.5 100.044 116.5 107.5Z" fill="#B3C177"/>
<path d="M94 106.5C94 102.9 96.5 97 102.684 97C108 97 109 102.9 109 106.5C109 110.1 108 116 102.684 116C96.5 116 94 110.1 94 106.5Z" fill="black"/>
<path d="M175 107.5C175 114.956 181.044 121 188.5 121C195.956 121 205.5 112.456 205.5 105C205.5 97.5442 195.956 94 188.5 94C181.044 94 175 100.044 175 107.5Z" fill="#B3C177"/>
<path d="M197.5 106.5C197.5 102.9 195 97 188.816 97C183.5 97 182.5 102.9 182.5 106.5C182.5 110.1 183.5 116 188.816 116C195 116 197.5 110.1 197.5 106.5Z" fill="black"/>
<mask id="mask0_306_60" style="mask-type:alpha" maskUnits="userSpaceOnUse" x="42" y="30" width="206" height="202">
<path d="M145 231.257C72.0386 227.274 42 174.974 42 136.999C42 105.399 47.6667 91.4988 50.5 88.4988C49.8333 70.6655 49.9 34.0988 55.5 30.4988C61.1 26.8988 88.8333 43.6655 102 52.4988C109 48.8322 127.4 41.4988 145 41.4988C162.6 41.4988 181 48.8322 188 52.4988C201.167 43.6655 228.9 26.8988 234.5 30.4988C240.1 34.0988 240.167 70.6655 239.5 88.4988C242.333 91.4988 248 105.399 248 136.999C248 174.974 217.961 227.274 145 231.257Z" fill="black"/>
</mask>
<g mask="url(#mask0_306_60)">
<path fill-rule="evenodd" clip-rule="evenodd" d="M112 190.999L83.5557 207.786C82.2085 208.581 81.0918 209.713 80.3157 211.071L75.4656 219.559C73.2035 223.518 74.259 228.542 77.9227 231.256L83.3598 235.284C84.4396 236.084 85.6847 236.632 87.0039 236.887L179.68 254.855C181.82 255.27 184.038 254.894 185.922 253.797L218.668 234.725C223.687 231.802 224.664 224.961 220.663 220.749L210.367 209.911C209.792 209.306 209.135 208.783 208.416 208.359L179 190.999L177.463 187.157C176.53 184.826 174.666 182.99 172.321 182.093L163.475 178.711C160.678 177.641 157.531 178.034 155.082 179.757L146.76 185.613C145.926 186.2 144.998 186.641 144.017 186.917L130.695 190.663C129.902 190.886 129.082 190.999 128.259 190.999H112Z" fill="white"/>
</g>
<path d="M155.91 126.999H134.357C130.173 126.999 127.839 131.832 130.442 135.109L141.448 148.964C143.476 151.518 147.366 151.477 149.341 148.883L159.888 135.027C162.394 131.736 160.047 126.999 155.91 126.999Z" fill="black"/>
<path d="M123 147.5C111 144.5 79.4 139.4 49 143C18.6 146.6 4.33333 153.167 1 156M119.5 159.5C112.167 155.5 91.2 147.5 66 147.5C40.8 147.5 23.1667 159.833 17.5 166M116 169.5C105.5 164 79.8 154.3 61 159.5C42.2 164.7 27.5 179.333 22.5 186" stroke="white"/>
<path d="M167 147.5C179 144.5 210.6 139.4 241 143C271.4 146.6 285.667 153.167 289 156M170.5 159.5C177.833 155.5 198.8 147.5 224 147.5C249.2 147.5 266.833 159.833 272.5 166M174 169.5C184.5 164 210.2 154.3 229 159.5C247.8 164.7 262.5 179.333 267.5 186" stroke="white"/>
<path d="M145.1 159C146.54 164.914 148.953 181.417 140.5 187.5C132.047 193.583 116.763 191.274 111 190.936" stroke="#464646" stroke-width="2"/>
<path d="M145.9 159C144.46 164.914 142.047 181.417 150.5 187.5C158.953 193.583 174.237 191.274 180 190.936" stroke="#464646" stroke-width="2"/>
<path d="M290 376.257C217.039 372.275 187 319.974 187 281.999C187 260.739 189.565 247.491 192.106 240.183C193.693 235.622 195.389 230.799 195.307 225.971C194.921 203.385 195.542 158.686 200.5 155.499C205.139 152.517 229.082 177.234 244.649 190.827C249.62 195.168 256.536 195.383 262.553 192.67C269.517 189.531 278.683 186.499 290 186.499C301.251 186.499 310.173 189.496 316.974 192.616C322.973 195.368 329.879 195.169 334.867 190.847C350.551 177.258 374.859 152.515 379.5 155.499C384.458 158.686 385.079 203.385 384.693 225.971C384.611 230.799 386.307 235.622 387.894 240.183C390.435 247.491 393 260.739 393 281.999C393 319.974 362.961 372.275 290 376.257Z" fill="black"/>
<path d="M261 252.499C261 259.955 254.956 265.999 247.5 265.999C240.044 265.999 230.5 257.455 230.5 249.999C230.5 242.543 240.044 238.999 247.5 238.999C254.956 238.999 261 245.043 261 252.499Z" fill="#B3C177"/>
<path d="M241 251.499C241 247.899 245.167 243.665 246.5 241.999C248.333 243.665 250.5 247.899 250.5 251.499C250.5 255.099 248.333 259.332 246.5 260.999C245.167 259.332 241 255.099 241 251.499Z" fill="black"/>
<mask id="mask1_306_60" style="mask-type:alpha" maskUnits="userSpaceOnUse" x="187" y="175" width="206" height="202">
<path d="M290 376.257C217.039 372.274 187 319.974 187 281.999C187 250.399 192.667 236.499 195.5 233.499C194.833 215.666 194.9 179.099 200.5 175.499C206.1 171.899 233.833 188.666 247 197.499C254 193.832 272.4 186.499 290 186.499C307.6 186.499 326 193.832 333 197.499C346.167 188.666 373.9 171.899 379.5 175.499C385.1 179.099 385.167 215.666 384.5 233.499C387.333 236.499 393 250.399 393 281.999C393 319.974 362.961 372.274 290 376.257Z" fill="black"/>
</mask>
<g mask="url(#mask1_306_60)">
<path d="M226.322 354.311C226.44 354.104 226.593 353.921 226.775 353.768L256.118 329.236C256.664 328.779 256.925 328.074 256.822 327.37C255.614 319.068 255.246 302.517 262.5 294.499C269.899 286.321 276.634 277.48 279.292 273.788C279.431 273.596 279.532 273.382 279.594 273.153L288.57 240.105C289.104 238.137 291.896 238.137 292.43 240.105L301.39 273.092C301.462 273.36 301.59 273.61 301.765 273.826L318.5 294.499C325.754 302.517 325.386 319.068 324.178 327.37C324.075 328.074 324.336 328.779 324.882 329.236L354.5 353.999L371.758 372.166C372.647 373.101 372.43 374.622 371.315 375.271L328.649 400.121C328.231 400.364 327.738 400.448 327.262 400.356L230.445 381.585C230.152 381.528 229.875 381.407 229.636 381.229L217.927 372.556C217.113 371.953 216.879 370.836 217.381 369.957L226.322 354.311Z" fill="white"/>
</g>
<path d="M320 252.499C320 259.955 326.044 265.999 333.5 265.999C340.956 265.999 350.5 257.455 350.5 249.999C350.5 242.543 340.956 238.999 333.5 238.999C326.044 238.999 320 245.043 320 252.499Z" fill="#B3C177"/>
<path d="M340 251.499C340 247.899 335.833 243.665 334.5 241.999C332.667 243.665 330.5 247.899 330.5 251.499C330.5 255.099 332.667 259.332 334.5 260.999C335.833 259.332 340 255.099 340 251.499Z" fill="black"/>
<path d="M300.91 271.999H279.357C275.173 271.999 272.839 276.832 275.442 280.109L286.448 293.964C288.476 296.518 292.366 296.477 294.341 293.883L304.888 280.027C307.394 276.736 305.047 271.999 300.91 271.999Z" fill="#EFC7DD"/>
<path d="M267 292.499C255 289.499 223.4 284.399 193 287.999C162.6 291.599 148.333 298.165 145 300.999M263.5 304.499C256.167 300.499 235.2 292.499 210 292.499C184.8 292.499 167.167 304.832 161.5 310.999M260 314.499C249.5 308.999 223.8 299.299 205 304.499C186.2 309.699 171.5 324.332 166.5 330.999" stroke="white"/>
<path d="M311 292.499C323 289.499 354.6 284.399 385 287.999C415.4 291.599 429.667 298.165 433 300.999M314.5 304.499C321.833 300.499 342.8 292.499 368 292.499C393.2 292.499 410.833 304.832 416.5 310.999M318 314.499C328.5 308.999 354.2 299.299 373 304.499C391.8 309.699 406.5 324.332 411.5 330.999" stroke="white"/>
<path d="M290.1 296.999C291.54 302.913 292.309 316.262 283.856 322.345C275.403 328.428 261.763 329.273 256 328.935" stroke="#EFC7DD" stroke-width="2"/>
<path d="M290.9 296.999C289.46 302.913 288.691 316.262 297.144 322.345C305.597 328.428 319.237 329.273 325 328.935" stroke="#EFC7DD" stroke-width="2"/>
</svg>
